<?xml version="1.0" encoding="utf-8"?>
<!-- Generator: Adobe Illustrator 14.0.0, SVG Export Plug-In . SVG Version: 6.00 Build 43363)  -->
<!DOCTYPE svg PUBLIC "-//W3C//DTD SVG 1.1//EN" "http://www.w3.org/Graphics/SVG/1.1/DTD/svg11.dtd">
<svg version="1.1" id="レイヤー_1" xmlns="http://www.w3.org/2000/svg" xmlns:xlink="http://www.w3.org/1999/xlink" x="0px"
	 y="0px" width="100.21px" height="100.207px" viewBox="0 0 100.21 100.207" enable-background="new 0 0 100.21 100.207"
	 xml:space="preserve">
<path fill="#FFFFFF" d="M30.166,49.978c-8.692-4.079-16.553-5.54-17.562-3.264c-0.008,0.018-0.006,0.039-0.013,0.056
	c-0.006,0.016-0.006,0.035-0.011,0.052l-0.026,0.841c0.179,0.769,0.824,1.703,1.839,2.732c2.76-0.257,8.071,1.152,13.793,3.837
	c5.775,2.713,10.329,5.953,11.913,8.272c1.414,0.124,2.527,0.03,3.231-0.311l0.759-0.745c0.002-0.006,0.002-0.013,0.004-0.02
	C44.977,59.125,38.785,54.027,30.166,49.978z"/>
<circle display="none" fill="none" stroke="#FFFFFF" cx="42.201" cy="57.01" r="52.277"/>
<path fill="#FFFFFF" d="M43.212,60.399c0.141-0.148,0.293-0.294,0.441-0.441C43.221,60.281,43.212,60.399,43.212,60.399z"/>
<path fill="#FFFFFF" d="M43.212,60.399c0.141-0.148,0.293-0.294,0.441-0.441C43.221,60.281,43.212,60.399,43.212,60.399z"/>
<path fill="#FFFFFF" d="M38.39,4.795c0.024-0.081,0.052-0.171,0.075-0.25C37.782,4.544,37.857,4.643,38.39,4.795z"/>
<path fill="#FFFFFF" d="M39.756,63.342c-3.284-0.28-8.205-1.725-13.441-4.104c-5.296-2.409-9.662-5.204-12.011-7.508
	c-1.006-0.986-1.644-1.883-1.821-2.619l-0.119,3.808l-0.006,0.216l-1.041,33.455v2.599c0,0.924,0.379,1.503,0.874,1.725
	c0.492,0.223,0.846-0.195,1.655-0.584l29.11-27.283C42.259,63.371,41.156,63.461,39.756,63.342z M13.298,88.633
	c0,0,15.466-20.252,17.53-23.638c2.443,0.777,3.296,0.935,5.107,1.096C28.391,72.782,13.298,88.633,13.298,88.633z"/>
<line display="none" fill="none" stroke="#FFFFFF" x1="18.553" y1="67.556" x2="42.201" y2="-11.828"/>
<text transform="matrix(1 0 0 1 99.5923 75.8135)" fill="#FFFFFF" font-family="'Arial-BoldMT'" font-size="52">Job</text>
<text transform="matrix(0.34 0 0 1 192.0396 75.8135)" fill="#FFFFFF" font-family="'Arial-BoldMT'" font-size="52"> </text>
<text transform="matrix(1 0 0 1 196.9517 75.8135)" fill="#FFFFFF" font-family="'Arial-BoldMT'" font-size="52">Streamer</text>
<line display="none" fill="none" stroke="#00B5AD" x1="6.803" y1="107.339" x2="63.102" y2="-11.828"/>
<line display="none" fill="none" stroke="#FFFFFF" x1="-10.076" y1="67.556" x2="101.053" y2="67.556"/>
<line display="none" fill="none" stroke="#FFFFFF" x1="35.474" y1="67.556" x2="110.553" y2="12.589"/>
<line display="none" fill="none" stroke="#FFFFFF" x1="-1.697" y1="110.839" x2="134.053" y2="-14.161"/>
<line display="none" fill="none" stroke="#FFFFFF" x1="12.514" y1="4.174" x2="9.725" y2="119.38"/>
<line display="none" fill="none" stroke="#FFFFFF" x1="25.803" y1="67.556" x2="84.553" y2="-15.411"/>
<path display="none" fill="#FFFFFF" d="M33.686,52.615c-11.862-5.997-22.59-8.144-23.966-4.799c-0.01,0.027-0.008,0.058-0.017,0.083
	c-0.008,0.023-0.008,0.052-0.015,0.076l-0.036,1.236c0.244,1.13,1.125,2.503,2.51,4.016c3.768-0.378,11.014,1.693,18.823,5.64
	c7.881,3.988,14.097,8.75,16.257,12.16c1.929,0.182,3.45,0.043,4.41-0.457l1.037-1.094c0.002-0.009,0.002-0.02,0.005-0.029
	C53.899,66.062,45.448,58.567,33.686,52.615z"/>
<path fill="#FFFFFF" d="M13.28,8.842c-1.37-0.033-2.529,2.093-2.591,4.744c-0.013,0.54,0.022,1.058,0.097,1.543l1.725,27.326
	l2.973-27.22c0.093-0.482,0.154-0.996,0.167-1.535C15.713,11.048,14.651,8.874,13.28,8.842z"/>
<path fill="#FFFFFF" d="M37.429,0.042c-1.312-0.398-3.217,2.064-4.257,5.495c-0.211,0.698-0.369,1.38-0.477,2.03L24.26,43.55
	L37.193,8.929c0.27-0.603,0.518-1.256,0.729-1.952C38.961,3.543,38.74,0.439,37.429,0.042z"/>
<path fill="#FFFFFF" d="M66.256,6.188c-1.107-0.808-3.952,1.214-6.349,4.51c-0.487,0.671-0.917,1.341-1.285,1.991L35.854,47.983
	l26.567-32.531c0.506-0.553,1.011-1.165,1.498-1.834C66.319,10.32,67.364,6.993,66.256,6.188z"/>
<path fill="#FFFFFF" d="M88.521,27.29c-0.713-1.17-4.116-0.396-7.594,1.729c-0.708,0.433-1.363,0.886-1.952,1.347L44.399,54.229
	l37.024-19.854c0.68-0.316,1.38-0.687,2.087-1.119C86.993,31.129,89.235,28.459,88.521,27.29z"/>
<path fill="#FFFFFF" d="M92.175,59.185c-0.092-1.368-2.945-2.288-6.367-2.057c-0.696,0.05-1.361,0.141-1.98,0.269l-35.061,4.739
	l35.382-0.053c0.629,0.042,1.299,0.046,1.994-0.003C89.567,61.848,92.268,60.552,92.175,59.185z"/>
<path fill="#FFFFFF" d="M74.14,81.42c-0.43,0-0.849,0.044-1.262,0.107c-0.514-4.841-3.68-8.919-8.249-9.948
	c-4.228-0.953-8.49,0.971-11.116,4.553c-1.192-2.017-3.21-3.342-5.499-3.342c-3.449,0-6.282,3.012-6.599,6.861
	c-1.761-1.045-3.933-1.239-5.842-0.316c-2.604,1.259-4.363,4.41-3.894,7.316c0.563,3.688,1.438,3.844,2.645,3.52
	c0.984-0.628,0.824-1.613,0.271-2.644c-0.447-0.97-0.4-1.268-0.436-2.126h0.012c-0.114-1.724,0.75-3.389,2.328-4.151
	c1.011-0.489,2.129-0.507,3.141-0.158l0.019-0.043l3.461,1.51l0.519-2.881l0.04,0.007c0.305-2.45,2.182-4.343,4.477-4.343
	c1.291,0,2.449,0.603,3.276,1.56l0.009-0.007l2.155,2.815l1.893-2.138c2.059-2.67,5.316-4.083,8.547-3.355
	c2.989,0.673,5.21,3.014,6.092,5.971l0.027-0.005l0.067,0.335c0.099,0.381,0.181,0.77,0.234,1.167l0.551,2.745l1.241-0.249
	l0.005,0.026c0.596-0.204,1.231-0.317,1.891-0.317c3.413,0,6.18,2.951,6.18,6.589s-2.767,6.588-6.18,6.588c-0.001,0-0.003,0-0.005,0
	H34.633h0c-2.407,0-4.678-1.92-5.121-4.019l-2.087,1.23c0.941,2.853,4.149,4.957,7.974,4.957H74.14c4.726,0,8.556-3.988,8.556-8.907
	C82.696,85.408,78.865,81.42,74.14,81.42z"/>
<path fill="#FFFFFF" d="M27.424,94.278c0,0-5.6,3.005-7.187,2.317c-0.784-1.018-0.718-2.887-0.933-3.697
	c-0.522-1.973-2.447-0.603-2.447-0.603c-1.748,1.2-6.749,5.749-6.749,5.749l3.332-7.955c1.167-1.949,0.886-1.054-0.142-1.457
	c-0.773-0.289-1.482,0.66-1.518,0.75l-3.738,9.673c-0.108,1.118,0.699,1.528,1.708,0.749l7.996-5.295c0,0,0.094,3.375,1.003,3.704
	c1.812,1.618,7.581-0.882,9.562-1.793c0.093,0.076,2.424-1.113,2.424-1.113C30.641,95.239,29.336,93.608,27.424,94.278z"/>
</svg>
